<?xml version="1.0" encoding="utf-8"?>
<!-- Generator: Adobe Illustrator 24.0.1, SVG Export Plug-In . SVG Version: 6.00 Build 0)  -->
<svg version="1.1" id="Слой_1" xmlns="http://www.w3.org/2000/svg" xmlns:xlink="http://www.w3.org/1999/xlink" x="0px" y="0px"
	 viewBox="0 0 421.7 200" style="enable-background:new 0 0 421.7 200;" xml:space="preserve">
<style type="text/css">
	.st0{fill:none;}
	.st1{fill:url(#SVGID_1_);}
	.st2{fill:url(#SVGID_2_);}
	.st3{fill:url(#SVGID_3_);}
	.st4{fill:#FFFFFF;}
</style>
<g>
	<path class="st0" d="M299.8,112.3c0,1.9,0.4,3.6,1.1,5.3c0.7,1.6,1.7,3.1,2.9,4.3c1.2,1.2,2.7,2.2,4.3,2.9c1.6,0.7,3.4,1.1,5.3,1.1
		c1.9,0,3.6-0.4,5.3-1.1c1.6-0.7,3.1-1.7,4.3-2.9c1.2-1.2,2.2-2.7,2.9-4.3c0.7-1.6,1.1-3.4,1.1-5.3c0-1-0.1-2.1-0.3-3h-26.5
		C299.9,110.2,299.8,111.2,299.8,112.3z"/>
	<linearGradient id="SVGID_1_" gradientUnits="userSpaceOnUse" x1="346.0252" y1="112.2532" x2="421.4314" y2="95.3768">
		<stop  offset="7.862213e-02" style="stop-color:#818282"/>
		<stop  offset="8.736259e-02" style="stop-color:#939393"/>
		<stop  offset="0.1064" style="stop-color:#B8B6B7"/>
		<stop  offset="0.1254" style="stop-color:#D6D4D5"/>
		<stop  offset="0.1441" style="stop-color:#EDECEC"/>
		<stop  offset="0.1624" style="stop-color:#FBFAFB"/>
		<stop  offset="0.1799" style="stop-color:#FFFFFF"/>
	</linearGradient>
	<path class="st1" d="M421.7,109.2V98.7h-77.3l0,0c0.1,0.1,0.1,0.2,0.2,0.4c1.4,3.2,2.2,6.6,2.5,10.1l0,0H421.7z"/>
	<linearGradient id="SVGID_2_" gradientUnits="userSpaceOnUse" x1="350.1972" y1="94.9027" x2="272.8428" y2="131.3485">
		<stop  offset="0.3444" style="stop-color:#FFFFFF"/>
		<stop  offset="0.5222" style="stop-color:#FCFCFC"/>
		<stop  offset="0.6247" style="stop-color:#F3F3F3"/>
		<stop  offset="0.708" style="stop-color:#E4E3E4"/>
		<stop  offset="0.781" style="stop-color:#CFCDCE"/>
		<stop  offset="0.8473" style="stop-color:#B5B3B4"/>
		<stop  offset="0.9079" style="stop-color:#969696"/>
		<stop  offset="0.9447" style="stop-color:#818282"/>
	</linearGradient>
	<path class="st2" d="M347.1,109.2c-0.3-3.5-1.1-6.9-2.5-10.1c-0.1-0.1-0.1-0.2-0.2-0.4c-1.8-4-4.1-7.5-7.1-10.5
		c-3.1-3.1-6.7-5.5-10.8-7.3c-4.1-1.8-8.5-2.7-13.2-2.7c-4.7,0-9.1,0.9-13.2,2.7c-4.1,1.8-7.7,4.2-10.8,7.3c-3,3-5.3,6.5-7.1,10.4
		h14.6h15.1l-0.1,0.1c0.5-0.1,1-0.1,1.6-0.1c1.9,0,3.6,0.4,5.3,1.1c1.6,0.7,3.1,1.7,4.3,2.9c1.2,1.2,2.2,2.7,2.9,4.3
		c0.3,0.7,0.6,1.5,0.7,2.2c0.2,1,0.3,2,0.3,3c0,1.9-0.4,3.6-1.1,5.3c-0.7,1.6-1.7,3.1-2.9,4.3c-1.2,1.2-2.7,2.2-4.3,2.9
		c-1.6,0.7-3.4,1.1-5.3,1.1c-1.9,0-3.6-0.4-5.3-1.1c-1.6-0.7-3.1-1.7-4.3-2.9c-1.2-1.2-2.2-2.7-2.9-4.3c-0.7-1.6-1.1-3.4-1.1-5.3
		c0-1,0.1-2.1,0.3-3h-0.4h-20.2c-0.1,1-0.1,2-0.1,3c0,4.7,0.9,9.1,2.7,13.2c1.8,4.1,4.2,7.7,7.3,10.8c3.1,3.1,6.7,5.5,10.8,7.3
		c4.1,1.8,8.5,2.7,13.2,2.7c4.7,0,9.1-0.9,13.2-2.7c4.1-1.8,7.7-4.2,10.8-7.3c3.1-3.1,5.5-6.7,7.3-10.8c1.8-4.1,2.7-8.5,2.7-13.2
		C347.3,111.2,347.2,110.2,347.1,109.2z"/>
	<linearGradient id="SVGID_3_" gradientUnits="userSpaceOnUse" x1="3.875612e-02" y1="103.96" x2="326.5742" y2="103.96">
		<stop  offset="0.6872" style="stop-color:#FFFFFF"/>
		<stop  offset="0.7798" style="stop-color:#FCFCFC"/>
		<stop  offset="0.8332" style="stop-color:#F3F3F3"/>
		<stop  offset="0.8767" style="stop-color:#E4E3E4"/>
		<stop  offset="0.9147" style="stop-color:#CFCDCE"/>
		<stop  offset="0.9493" style="stop-color:#B5B3B4"/>
		<stop  offset="0.9808" style="stop-color:#969696"/>
		<stop  offset="1" style="stop-color:#818282"/>
	</linearGradient>
	<path class="st3" d="M325.8,107c-0.7-1.6-1.7-3.1-2.9-4.3c-1.2-1.2-2.7-2.2-4.3-2.9c-1.6-0.7-3.4-1.1-5.3-1.1c-0.5,0-1.1,0-1.6,0.1
		l0.1-0.1h-15.1h-14.6H0v10.5h279.5h17.3h2.9h0.4h26.5C326.4,108.5,326.2,107.7,325.8,107z"/>
	
		<rect x="21.7" y="-21.1" transform="matrix(-1.836970e-16 1 -1 -1.836970e-16 32.2065 -21.6646)" class="st4" width="10.5" height="52.7"/>
	
		<rect x="21.7" y="-1.5" transform="matrix(-1.836970e-16 1 -1 -1.836970e-16 51.7867 -2.0844)" class="st4" width="10.5" height="52.7"/>
	
		<rect x="48" y="-8.3" transform="matrix(-1.836970e-16 1 -1 -1.836970e-16 97.7217 -8.8591)" class="st4" width="10.5" height="105.4"/>
	
		<rect x="74.4" y="-15.1" transform="matrix(-1.836970e-16 1 -1 -1.836970e-16 143.6646 -15.6417)" class="st4" width="10.5" height="158.1"/>
	
		<rect x="126.5" y="-48.2" transform="matrix(-1.836970e-16 1 -1 -1.836970e-16 215.4046 -48.2214)" class="st4" width="10.5" height="263.5"/>
	<g>
		<g>
			<path class="st4" d="M24,129.4l11.7,29.9l11.8-29.9h24l-26.8,68.8H26.8L0,129.4H24z"/>
			<path class="st4" d="M85.4,129.4H126v18.1h-18.6v7.6h18.3v17.1h-18.3v7.9h19.3v18.1H85.4V129.4z"/>
			<path class="st4" d="M142.2,163.9c0-5.5,1-10.5,2.9-14.9c1.9-4.4,4.5-8.2,7.8-11.4c3.3-3.2,7.2-5.6,11.6-7.3
				c4.4-1.7,9.1-2.5,14-2.5c3.9,0,7.4,0.4,10.5,1.1c3.1,0.8,5.7,1.6,7.9,2.6c2.5,1.1,4.7,2.3,6.6,3.6l-10.8,19.1
				c-1.1-0.8-2.3-1.6-3.6-2.4c-1.2-0.5-2.6-1.1-4.2-1.6c-1.6-0.5-3.5-0.8-5.5-0.8c-2.1,0-4.1,0.4-5.9,1.1c-1.8,0.8-3.4,1.8-4.7,3.1
				c-1.3,1.3-2.4,2.8-3.1,4.6c-0.8,1.8-1.1,3.6-1.1,5.6c0,2,0.4,3.9,1.2,5.6c0.8,1.8,1.9,3.3,3.2,4.6c1.4,1.3,3,2.3,4.8,3.1
				c1.9,0.8,3.9,1.1,6.1,1.1c2.2,0,4.2-0.3,5.9-0.8c1.7-0.5,3.2-1.2,4.3-1.9c1.4-0.8,2.6-1.7,3.6-2.7l10.8,19.1
				c-1.9,1.5-4.1,2.9-6.6,4c-2.2,1-4.8,1.9-7.9,2.7c-3.1,0.8-6.6,1.2-10.6,1.2c-5.4,0-10.3-0.9-14.9-2.6c-4.5-1.8-8.5-4.2-11.8-7.4
				c-3.3-3.2-5.9-7-7.7-11.4C143.1,174.2,142.2,169.3,142.2,163.9z"/>
			<path class="st4" d="M230.1,147.5h-12.7v-18.1h48.1v18.1h-12.7v50.8h-22.7V147.5z"/>
			<path class="st4" d="M276.8,163.9c0-5,0.9-9.6,2.8-14c1.9-4.4,4.5-8.2,7.7-11.5c3.3-3.3,7.1-5.8,11.5-7.7c4.4-1.9,9.1-2.8,14-2.8
				c5,0,9.6,0.9,14,2.8c4.4,1.9,8.2,4.5,11.5,7.7c3.3,3.3,5.8,7.1,7.7,11.5c1.9,4.4,2.8,9.1,2.8,14c0,5-0.9,9.6-2.8,14
				c-1.9,4.4-4.5,8.2-7.7,11.5c-3.3,3.3-7.1,5.8-11.5,7.7c-4.4,1.9-9.1,2.8-14,2.8c-5,0-9.6-0.9-14-2.8c-4.4-1.9-8.2-4.5-11.5-7.7
				c-3.3-3.3-5.8-7.1-7.7-11.5C277.8,173.5,276.8,168.8,276.8,163.9z M298.5,163.9c0,2,0.4,3.9,1.1,5.6c0.8,1.8,1.8,3.3,3.1,4.6
				c1.3,1.3,2.8,2.3,4.6,3.1c1.8,0.8,3.6,1.1,5.6,1.1c2,0,3.9-0.4,5.6-1.1c1.8-0.8,3.3-1.8,4.6-3.1c1.3-1.3,2.3-2.8,3.1-4.6
				c0.8-1.8,1.1-3.6,1.1-5.6c0-2-0.4-3.9-1.1-5.6c-0.8-1.8-1.8-3.3-3.1-4.6c-1.3-1.3-2.8-2.3-4.6-3.1c-1.8-0.8-3.6-1.1-5.6-1.1
				c-2,0-3.9,0.4-5.6,1.1c-1.8,0.8-3.3,1.8-4.6,3.1c-1.3,1.3-2.3,2.8-3.1,4.6C298.9,160,298.5,161.9,298.5,163.9z"/>
			<path class="st4" d="M367.1,129.4h23.7c4.4,0,8.5,0.6,12.2,1.8c3.7,1.2,7,2.9,9.8,5.2c2.8,2.3,4.9,5.1,6.4,8.4
				c1.5,3.3,2.3,7.2,2.3,11.5c0,3.4-0.5,6.4-1.4,8.8c-1,2.4-2,4.4-3.2,6c-1.4,1.8-2.9,3.3-4.6,4.5l12.9,22.7h-25.8l-10.3-17.4v17.4
				h-22V129.4z M389.1,163.3h1.1c2.6,0,4.8-0.6,6.7-1.8c1.8-1.2,2.7-3.1,2.7-5.9c0-2.8-0.9-4.7-2.7-5.9c-1.8-1.2-4-1.8-6.7-1.8h-1.1
				V163.3z"/>
		</g>
	</g>
</g>
</svg>
